<svg width="40" height="40" viewBox="0 0 40 40" fill="none" xmlns="http://www.w3.org/2000/svg">
<circle cx="20" cy="20" r="20" fill="#3A6B5C" fill-opacity="0.7"/>
<path d="M28.3801 14.0294C28.3169 13.8731 28.1474 13.7686 27.9571 13.7686C26.8418 13.7686 25.7557 13.9228 24.7486 14.2184C25.5201 12.9103 26.4742 12.07 26.4855 12.0601C26.6142 11.9486 26.6529 11.7804 26.5836 11.6342C26.5143 11.488 26.3507 11.3927 26.1691 11.3927C24.8356 11.3927 23.5693 11.8045 22.5203 12.5666C22.3402 12.0016 22.0751 11.4555 21.7501 10.9874C21.4374 10.5369 20.9641 10 20.4851 10C19.9689 10 19.4898 10.5402 19.1787 10.9934C18.8645 11.451 18.6085 11.9908 18.434 12.5552C17.3881 11.8005 16.1279 11.3927 14.8011 11.3927C14.6197 11.3927 14.4563 11.488 14.3869 11.6339C14.3175 11.7799 14.356 11.9481 14.4843 12.0598C14.4959 12.0699 15.4513 12.9114 16.223 14.2209C15.2135 13.9236 14.1244 13.7685 13.0059 13.7685C12.8156 13.7685 12.6461 13.873 12.5829 14.0293C12.5197 14.1856 12.5765 14.3596 12.7247 14.4635C12.7298 14.4671 13.2464 14.8311 13.9075 15.4651C14.074 15.6248 14.3577 15.6367 14.541 15.4916C14.7244 15.3466 14.7381 15.0996 14.5715 14.9399C14.4508 14.8241 14.3345 14.7166 14.2246 14.618C15.1422 14.7221 16.0099 14.9434 16.7974 15.2661C16.8604 15.3159 16.9384 15.3489 17.0219 15.3618C18.1004 15.8398 19.0154 16.5139 19.6822 17.3438H19.1915C18.3356 17.3438 17.5255 17.5172 16.8047 17.8254C16.6643 17.5579 16.5054 17.2889 16.3303 17.0234C16.207 16.8364 15.933 16.7718 15.718 16.8792C15.5033 16.9866 15.4292 17.2254 15.5525 17.4125C15.7313 17.6836 15.8908 17.9582 16.0293 18.2298C14.6543 19.0896 13.7568 20.4938 13.7568 22.0772V25.2666C13.7567 27.8766 16.1947 30 19.1914 30H21.7769C24.7736 30 27.2116 27.8766 27.2116 25.2666V22.0772C27.2116 20.492 26.3121 19.0863 24.9344 18.2268C26.0686 16.0054 28.2167 14.4787 28.2382 14.4635C28.3864 14.3596 28.4433 14.1856 28.3801 14.0294ZM25.0914 12.2852C24.6091 12.8371 23.9922 13.6568 23.5307 14.6622C23.4457 14.6999 23.3613 14.7386 23.278 14.7786C22.4124 15.1937 21.6557 15.7248 21.037 16.3461C21.456 14.3154 23.0588 12.7107 25.0914 12.2852ZM20.4698 10.8127C20.7607 11.0314 21.483 11.9221 21.7731 13.2066C21.2139 13.7684 20.7798 14.4192 20.4851 15.1265C20.1883 14.4142 19.7501 13.759 19.1852 13.1946C19.4599 11.9368 20.1526 11.0237 20.4698 10.8127ZM17.6851 14.7786C17.6047 14.7401 17.5233 14.7028 17.4413 14.6664C16.9796 13.6591 16.3617 12.8378 15.8788 12.2852C17.9145 12.7114 19.5192 14.3204 19.9353 16.3557C19.3148 15.7303 18.555 15.1958 17.6851 14.7786ZM20.5005 18.2921L22.9346 20.4122L20.5005 22.5323L18.0663 20.4122L20.5005 18.2921ZM21.5772 18.125H21.7769C22.8363 18.125 23.8119 18.4429 24.585 18.9748L23.569 19.8598L21.5772 18.125ZM20.5005 23.6371L23.02 25.8315L20.5005 28.0259L17.9811 25.8315L20.5005 23.6371ZM17.3467 25.2791L14.9126 23.159L17.4321 20.9646L19.8662 23.0847L17.3467 25.2791ZM19.1914 18.125H19.4238L17.4321 19.8597L16.4016 18.9623C17.1717 18.4379 18.1404 18.125 19.1914 18.125ZM14.6537 22.0771C14.6537 21.0942 15.068 20.1939 15.7524 19.5017L16.7978 20.4122L14.6537 22.2796V22.0771ZM15.2015 27.1476C14.8523 26.588 14.6538 25.9471 14.6538 25.2666V24.0385L16.7125 25.8316L15.2015 27.1476ZM19.1348 29.2154C19.1338 29.2163 19.133 29.2173 19.132 29.2181C17.7623 29.2027 16.537 28.6562 15.7159 27.8045L17.3468 26.384L19.8663 28.5784L19.1348 29.2154ZM21.7769 29.2188H20.3995L23.6543 26.384L25.2674 27.789C24.4344 28.662 23.179 29.2188 21.7769 29.2188ZM26.3146 25.2666C26.3146 25.9396 26.1203 26.5737 25.7782 27.1289L24.2886 25.8315L26.3146 24.0669V25.2666ZM25.2309 19.5171C25.9063 20.2073 26.3146 21.1014 26.3146 22.0772V22.962L23.6543 25.2791L21.1348 23.0847L23.569 20.9646L24.1302 21.4534C24.2177 21.5296 24.3325 21.5678 24.4473 21.5678C24.5621 21.5678 24.6768 21.5296 24.7644 21.4534C24.9396 21.3008 24.9396 21.0535 24.7644 20.9009L24.2033 20.4121L25.2309 19.5171ZM24.1593 17.8235C23.4395 17.5164 22.631 17.3438 21.7769 17.3438H21.2807C21.9468 16.5149 22.8604 15.8415 23.9372 15.3636C24.0279 15.3517 24.1127 15.3155 24.1796 15.2604C24.9626 14.9411 25.8245 14.722 26.7355 14.6184C25.9673 15.3065 24.8938 16.4233 24.1593 17.8235Z" fill="white"/>
<path d="M15.4868 15.9075L15.4815 15.9014C15.3332 15.7286 15.0522 15.6932 14.8538 15.8225C14.6554 15.9516 14.6148 16.1964 14.7631 16.3692L14.7684 16.3753C14.8565 16.478 14.9913 16.5321 15.1279 16.5321C15.2214 16.5321 15.3156 16.5068 15.3961 16.4543C15.5945 16.3251 15.6351 16.0803 15.4868 15.9075Z" fill="white"/>
<path d="M25.7773 21.7832C25.6939 21.7105 25.5782 21.6687 25.4602 21.6687C25.3422 21.6687 25.2265 21.7105 25.1431 21.7832C25.0597 21.8558 25.0117 21.9566 25.0117 22.0593C25.0117 22.1621 25.0597 22.2628 25.1431 22.3355C25.2265 22.4081 25.3422 22.45 25.4602 22.45C25.5782 22.45 25.6939 22.4082 25.7773 22.3355C25.8607 22.2628 25.9087 22.1621 25.9087 22.0593C25.9087 21.9566 25.8607 21.8558 25.7773 21.7832Z" fill="white"/>
<path d="M20.8012 20.2211C20.7178 20.1484 20.6021 20.1066 20.4841 20.1066C20.3662 20.1066 20.2505 20.1484 20.1671 20.2211C20.0836 20.2937 20.0356 20.3945 20.0356 20.4976C20.0356 20.6004 20.0836 20.7007 20.1671 20.7738C20.2505 20.8464 20.3662 20.8882 20.4841 20.8882C20.6021 20.8882 20.7174 20.8465 20.8012 20.7738C20.8846 20.7007 20.9326 20.6004 20.9326 20.4976C20.9326 20.3945 20.8846 20.2941 20.8012 20.2211Z" fill="white"/>
<path d="M20.8012 25.6215C20.7178 25.5488 20.6021 25.507 20.4841 25.507C20.3662 25.507 20.2505 25.5488 20.1671 25.6215C20.0836 25.6941 20.0356 25.7948 20.0356 25.8976C20.0356 26.0007 20.0836 26.1011 20.1671 26.1738C20.2505 26.2464 20.3662 26.2882 20.4841 26.2882C20.6021 26.2882 20.7178 26.2468 20.8012 26.1738C20.8846 26.1011 20.9326 26.0003 20.9326 25.8976C20.9326 25.7948 20.8846 25.6941 20.8012 25.6215Z" fill="white"/>
<path d="M17.6505 22.941C17.5672 22.8684 17.4515 22.8265 17.3335 22.8265C17.2156 22.8265 17.0998 22.8683 17.0164 22.941C16.933 23.0136 16.885 23.1144 16.885 23.2172C16.885 23.3199 16.933 23.4207 17.0164 23.4933C17.0999 23.566 17.2156 23.6078 17.3335 23.6078C17.4515 23.6078 17.5672 23.566 17.6505 23.4933C17.734 23.4207 17.782 23.3199 17.782 23.2172C17.782 23.1144 17.734 23.0136 17.6505 22.941Z" fill="white"/>
<path d="M23.9847 22.941C23.9013 22.8684 23.7855 22.8265 23.6676 22.8265C23.5497 22.8265 23.4339 22.8683 23.3506 22.941C23.2672 23.0136 23.2191 23.1144 23.2191 23.2172C23.2191 23.3199 23.2671 23.4207 23.3506 23.4933C23.4339 23.566 23.5497 23.6078 23.6676 23.6078C23.7856 23.6078 23.9013 23.566 23.9847 23.4933C24.0681 23.4206 24.1161 23.3199 24.1161 23.2172C24.1161 23.1144 24.0682 23.0136 23.9847 22.941Z" fill="white"/>
<path d="M23.9842 27.7684C23.9008 27.6958 23.7851 27.6539 23.6671 27.6539C23.5487 27.6539 23.4335 27.6957 23.3496 27.7684C23.2662 27.841 23.2186 27.9418 23.2186 28.0446C23.2186 28.1473 23.2662 28.2481 23.3496 28.3207C23.4335 28.3934 23.5487 28.4352 23.6671 28.4352C23.7851 28.4352 23.9003 28.3934 23.9842 28.3207C24.0676 28.2477 24.1156 28.1473 24.1156 28.0446C24.1156 27.9418 24.0676 27.841 23.9842 27.7684Z" fill="white"/>
<path d="M17.6501 27.7684C17.5667 27.6958 17.451 27.6539 17.333 27.6539C17.2146 27.6539 17.0993 27.6954 17.0155 27.7684C16.9321 27.841 16.8845 27.9415 16.8845 28.0446C16.8845 28.1473 16.9321 28.2481 17.0155 28.3207C17.0993 28.3934 17.2146 28.4352 17.333 28.4352C17.451 28.4352 17.5667 28.3934 17.6501 28.3207C17.7335 28.2481 17.781 28.1473 17.781 28.0446C17.781 27.9415 17.7335 27.841 17.6501 27.7684Z" fill="white"/>
</svg>
