<svg width="68" height="55" viewBox="0 0 68 55" fill="none" xmlns="http://www.w3.org/2000/svg">
<circle cx="23.8636" cy="30.8636" r="23.8636" fill="#FFB84D"/>
<g filter="url(#filter0_d)">
<circle cx="47.1838" cy="20.7746" r="12.82" fill="white"/>
</g>
<path d="M19.0908 38.5C18.0408 38.5 17.1913 39.3591 17.1913 40.4091C17.1913 41.4591 18.0408 42.3182 19.0908 42.3182C20.1408 42.3182 20.9999 41.4591 20.9999 40.4091C20.9999 39.3591 20.1408 38.5 19.0908 38.5ZM13.3635 23.2273V25.1364H15.2726L18.709 32.3814L17.4203 34.72C17.2676 34.9873 17.1817 35.3023 17.1817 35.6364C17.1817 36.6864 18.0408 37.5455 19.0908 37.5455H30.5453V35.6364H19.4917C19.3581 35.6364 19.2531 35.5314 19.2531 35.3978L19.2817 35.2832L20.1408 33.7273H27.2522C27.9681 33.7273 28.5981 33.3359 28.9226 32.7441L32.3399 26.5491C32.4163 26.4155 32.4544 26.2532 32.4544 26.0909C32.4544 25.5659 32.0249 25.1364 31.4999 25.1364H17.3822L16.4849 23.2273H13.3635ZM28.6363 38.5C27.5863 38.5 26.7367 39.3591 26.7367 40.4091C26.7367 41.4591 27.5863 42.3182 28.6363 42.3182C29.6863 42.3182 30.5453 41.4591 30.5453 40.4091C30.5453 39.3591 29.6863 38.5 28.6363 38.5Z" fill="white"/>
<defs>
<filter id="filter0_d" x="27.3638" y="0.95459" width="39.64" height="39.64" filterUnits="userSpaceOnUse" color-interpolation-filters="sRGB">
<feFlood flood-opacity="0" result="BackgroundImageFix"/>
<feColorMatrix in="SourceAlpha" type="matrix" values="0 0 0 0 0 0 0 0 0 0 0 0 0 0 0 0 0 0 127 0"/>
<feOffset/>
<feGaussianBlur stdDeviation="3.5"/>
<feColorMatrix type="matrix" values="0 0 0 0 0 0 0 0 0 0 0 0 0 0 0 0 0 0 0.19 0"/>
<feBlend mode="normal" in2="BackgroundImageFix" result="effect1_dropShadow"/>
<feBlend mode="normal" in="SourceGraphic" in2="effect1_dropShadow" result="shape"/>
</filter>
</defs>
</svg>
