<svg width="18" height="20" viewBox="0 0 18 20" fill="none" xmlns="http://www.w3.org/2000/svg">
<g clip-path="url(#clip0)">
<path d="M2.53533 19.7286H8.18067V12.8712H6.1524V10.6105H8.18067V7.78468C8.18067 6.22649 9.318 4.95884 10.716 4.95884H13.2513V7.21951H11.2231C10.6638 7.21951 10.2089 7.72654 10.2089 8.34985V10.6105H13.1598L12.8218 12.8712H10.2089V19.7286H14.7725C16.1705 19.7286 17.3079 18.4609 17.3079 16.9027V3.26334C17.3079 1.70515 16.1705 0.4375 14.7725 0.4375H2.53533C1.13733 0.4375 0 1.70515 0 3.26334V16.9027C0 18.4609 1.13733 19.7286 2.53533 19.7286ZM1.01413 3.26334C1.01413 2.32846 1.69656 1.56784 2.53533 1.56784H14.7725C15.6113 1.56784 16.2937 2.32846 16.2937 3.26334V16.9027C16.2937 17.8376 15.6113 18.5982 14.7725 18.5982H11.2231V14.0015H13.6809L14.357 9.48018H11.2231V8.34985H14.2655V3.82851H10.716C8.75878 3.82851 7.16654 5.60319 7.16654 7.78468V9.48018H5.13827V14.0015H7.16654V18.5982H2.53533C1.69656 18.5982 1.01413 17.8376 1.01413 16.9027V3.26334Z" fill="white"/>
</g>
<defs>
<clipPath id="clip0">
<rect y="0.4375" width="17.3079" height="19.2911" fill="white"/>
</clipPath>
</defs>
</svg>
