<svg width="18" height="20" viewBox="0 0 18 20" fill="none" xmlns="http://www.w3.org/2000/svg">
<g clip-path="url(#clip0)">
<path d="M12.9306 0.4375H4.99293C2.40954 0.4375 0.307861 2.78 0.307861 5.6594V14.5068C0.307861 17.386 2.40954 19.7285 4.99293 19.7285H12.9307C15.514 19.7285 17.6157 17.386 17.6157 14.5068V5.6594C17.6157 2.78 15.514 0.4375 12.9306 0.4375V0.4375ZM16.601 14.5068C16.601 16.7624 14.9545 18.5976 12.9306 18.5976H4.99293C2.96903 18.5976 1.32252 16.7624 1.32252 14.5068V5.6594C1.32252 3.40359 2.96903 1.56842 4.99293 1.56842H12.9307C14.9545 1.56842 16.601 3.40359 16.601 5.6594V14.5068Z" fill="white"/>
<path d="M8.96172 4.80835C6.35219 4.80835 4.22925 7.17454 4.22925 10.0831C4.22925 12.9916 6.35219 15.3578 8.96172 15.3578C11.5713 15.3578 13.6942 12.9916 13.6942 10.0831C13.6942 7.17454 11.5713 4.80835 8.96172 4.80835ZM8.96172 14.2269C6.91181 14.2269 5.24391 12.368 5.24391 10.0831C5.24391 7.79829 6.91181 5.93927 8.96172 5.93927C11.0118 5.93927 12.6795 7.79829 12.6795 10.0831C12.6795 12.368 11.0118 14.2269 8.96172 14.2269Z" fill="white"/>
<path d="M13.8074 2.93506C13.0363 2.93506 12.4091 3.6343 12.4091 4.49368C12.4091 5.35321 13.0363 6.05245 13.8074 6.05245C14.5786 6.05245 15.206 5.35321 15.206 4.49368C15.206 3.63416 14.5786 2.93506 13.8074 2.93506ZM13.8074 4.92138C13.5959 4.92138 13.4237 4.72946 13.4237 4.49368C13.4237 4.25775 13.5959 4.06598 13.8074 4.06598C14.0191 4.06598 14.1913 4.25775 14.1913 4.49368C14.1913 4.72946 14.0191 4.92138 13.8074 4.92138Z" fill="white"/>
</g>
<defs>
<clipPath id="clip0">
<rect x="0.307861" y="0.4375" width="17.3079" height="19.2911" fill="white"/>
</clipPath>
</defs>
</svg>
