<svg width="245" height="327" viewBox="0 0 245 327" fill="none" xmlns="http://www.w3.org/2000/svg">
<g clip-path="url(#clip0)">
<path d="M269.075 161.664C269.751 159.866 269.219 157.835 267.746 156.6C259.114 149.357 249.559 143.674 239.56 139.761C255.284 133.147 268.934 131.876 269.095 131.862C270.923 131.706 272.477 130.463 273.031 128.714C273.584 126.965 273.029 125.055 271.623 123.876C261.302 115.216 248.431 110.652 234.63 110.611C237.449 104.421 239.469 97.8464 240.444 91.5761C241.383 85.5428 241.723 77.698 238.016 74.5873C234.021 71.2345 226.285 72.9232 220.498 74.9299C214.654 76.9567 208.648 80.0909 203.089 83.9731C200.622 70.4739 193.909 58.6658 183.64 50.0491C182.236 48.8709 180.261 48.6568 178.636 49.5034C177.01 50.3499 176.054 52.0945 176.214 53.9202C176.229 54.0856 177.348 67.7669 173.557 84.416C167.961 75.2181 160.688 66.7663 152.031 59.5028C150.559 58.2673 148.467 58.0952 146.812 59.0733C145.158 60.0517 144.3 61.9671 144.673 63.8527C144.686 63.9179 145.97 70.5067 146.359 80.4336C146.457 82.9345 148.564 84.8822 151.064 84.7841C153.565 84.6866 155.513 82.5799 155.415 80.0794C155.343 78.2659 155.245 76.5563 155.129 74.9663C161.455 81.8497 166.52 89.4515 170.21 97.4332C170.326 98.2847 170.683 99.0852 171.233 99.7411C176.016 110.993 178.071 122.925 177.044 134.63L173.246 131.443C166.623 125.885 159.06 122.165 151.182 120.223C152.09 116.934 152.866 113.512 153.491 110.016C153.932 107.553 152.292 105.199 149.827 104.758C147.364 104.318 145.01 105.959 144.57 108.422C143.932 111.992 143.119 115.467 142.166 118.781C125.113 117.491 107.697 124.141 95.8904 138.212L72.1094 166.553C52.6476 189.745 55.6836 224.446 78.8767 243.908L98.8872 260.699C122.08 280.16 156.782 277.124 176.243 253.931L200.024 225.59C211.844 211.503 215.363 193.171 211.11 176.587C236.451 164.212 264.46 164.596 264.74 164.601C266.661 164.64 268.399 163.463 269.075 161.664ZM256.627 124.807C248.78 126.58 237.893 129.858 226.825 135.795C225.885 135.578 224.944 135.374 224 135.188C214.206 133.255 204.39 133.06 194.969 134.563C213.354 119.239 237.723 115.389 256.627 124.807ZM231.839 81.7093C232.459 85.5416 231.408 98.1476 224.075 111.446C215.558 112.806 207.346 115.771 199.791 120.142C202.805 111.884 204.299 103.217 204.135 94.5327C215.64 85.1399 227.81 81.524 231.839 81.7093ZM180.714 98.8663C180.379 98.0018 180.028 97.1423 179.664 96.2861C183.601 84.3368 184.943 73.026 185.326 64.9787C197.904 81.9875 198.326 106.706 186.37 127.494C186.232 117.907 184.336 108.223 180.714 98.8663ZM176.306 148.372L179.338 183.019L144.69 186.05L141.659 151.403L176.306 148.372ZM185.886 153.879L187.431 155.176C195.63 162.056 200.811 171.217 202.828 180.964L188.366 182.23L185.886 153.879ZM136.452 195.868L139.59 231.73L103.728 234.867L100.591 199.006L136.452 195.868ZM99.8006 189.978L96.7693 155.33L132.631 152.193L135.662 186.84L99.8006 189.978ZM167.421 138.385L169.219 139.894L140.869 142.374L139.586 127.708C149.456 128.05 159.286 131.559 167.421 138.385ZM102.833 144.036C110.162 135.301 120.081 129.991 130.539 128.285L131.841 143.165L101.323 145.834L102.833 144.036ZM69.2648 192.65C70.7351 185.409 73.9775 178.424 79.0516 172.377L88.2086 161.464L90.7723 190.768L69.2648 192.65ZM84.2887 236.568C84.2747 236.57 84.2608 236.573 84.2467 236.574C73.7609 227.542 68.3532 214.728 68.3486 201.827L91.5625 199.796L94.7 235.658L84.2887 236.568ZM104.712 253.756L94.0522 244.811L140.379 240.758L142.388 263.72C129.432 266.067 115.564 262.862 104.712 253.756ZM169.301 248.106C164.283 254.086 158.05 258.459 151.263 261.171L149.408 239.968L178.246 237.445L169.301 248.106ZM203.784 189.978C203.864 200.497 200.358 211.093 193.082 219.764L186.484 227.627L148.618 230.94L145.48 195.079L180.128 192.047L180.827 200.035C180.936 201.281 181.54 202.366 182.428 203.111C183.316 203.856 184.489 204.262 185.736 204.154C188.229 203.936 190.073 201.738 189.855 199.245L189.156 191.257L203.784 189.978ZM208.118 167.969C204.837 160.566 199.867 153.78 193.256 148.234L189.416 145.011C200.751 141.972 212.843 141.921 224.741 144.667C225.532 145.151 226.457 145.38 227.387 145.324C235.827 147.572 244.132 151.222 251.954 156.218C240.879 157.344 224.243 160.296 208.118 167.969Z" fill="black" fill-opacity="0.11"/>
<path d="M155.283 94.6221L155.288 94.5336C155.429 92.0344 153.518 89.8955 151.019 89.7552C148.52 89.6149 146.381 91.5267 146.24 94.0251L146.235 94.1137C146.152 95.5979 146.792 96.9546 147.849 97.8417C148.572 98.4484 149.49 98.8354 150.505 98.892C153.004 99.0324 155.143 97.1206 155.283 94.6221Z" fill="black" fill-opacity="0.11"/>
<path d="M191.115 213.662C191.012 212.475 190.428 211.352 189.515 210.586C188.602 209.82 187.395 209.44 186.208 209.544C185.02 209.648 183.897 210.232 183.131 211.144C182.365 212.057 181.985 213.264 182.089 214.452C182.193 215.639 182.777 216.762 183.69 217.528C184.603 218.294 185.81 218.674 186.997 218.57C188.184 218.466 189.308 217.883 190.074 216.97C190.84 216.057 191.22 214.85 191.115 213.662Z" fill="black" fill-opacity="0.11"/>
<path d="M164.25 167.466C164.147 166.278 163.563 165.155 162.65 164.389C161.737 163.623 160.53 163.243 159.343 163.347C158.155 163.451 157.033 164.035 156.263 164.952C155.497 165.864 155.12 167.068 155.221 168.259C155.325 169.446 155.909 170.569 156.822 171.335C157.735 172.101 158.939 172.478 160.129 172.377C161.32 172.27 162.44 171.69 163.206 170.777C163.975 169.86 164.352 168.657 164.25 167.466Z" fill="black" fill-opacity="0.11"/>
<path d="M123.983 215.454C123.88 214.267 123.296 213.144 122.383 212.378C121.47 211.612 120.263 211.232 119.075 211.336C117.888 211.439 116.766 212.023 115.999 212.936C115.23 213.853 114.853 215.056 114.957 216.244C115.062 217.431 115.645 218.554 116.558 219.32C117.471 220.086 118.675 220.47 119.865 220.362C121.053 220.258 122.176 219.674 122.942 218.762C123.708 217.849 124.088 216.642 123.983 215.454Z" fill="black" fill-opacity="0.11"/>
<path d="M119.585 171.174C119.482 169.987 118.898 168.863 117.985 168.097C117.072 167.331 115.865 166.951 114.677 167.056C113.49 167.159 112.367 167.743 111.601 168.656C110.835 169.569 110.455 170.776 110.559 171.963C110.663 173.151 111.247 174.274 112.16 175.04C113.073 175.806 114.28 176.186 115.467 176.082C116.654 175.978 117.777 175.394 118.544 174.481C119.31 173.568 119.69 172.361 119.585 171.174Z" fill="black" fill-opacity="0.11"/>
<path d="M168.608 212.309C168.505 211.122 167.921 209.998 167.008 209.233C166.095 208.467 164.888 208.087 163.701 208.191C162.513 208.295 161.39 208.878 160.624 209.791C159.858 210.704 159.478 211.911 159.582 213.099C159.686 214.286 160.27 215.409 161.183 216.175C162.096 216.941 163.303 217.321 164.49 217.217C165.678 217.113 166.8 216.53 167.567 215.616C168.333 214.704 168.713 213.497 168.608 212.309Z" fill="black" fill-opacity="0.11"/>
<path d="M132.611 255.203C132.507 254.015 131.923 252.892 131.01 252.126C130.094 251.357 128.89 250.98 127.699 251.081C126.512 251.185 125.392 251.772 124.626 252.685C123.86 253.597 123.477 254.802 123.581 255.989C123.688 257.179 124.269 258.299 125.185 259.068C126.098 259.834 127.301 260.212 128.492 260.11C129.682 260.003 130.803 259.423 131.569 258.51C132.335 257.597 132.715 256.39 132.611 255.203Z" fill="black" fill-opacity="0.11"/>
<path d="M83.5877 214.068C83.4842 212.881 82.9005 211.757 81.9876 210.991C81.0709 210.222 79.8698 209.842 78.6764 209.946C77.4893 210.05 76.3725 210.634 75.6038 211.55C74.8378 212.463 74.4543 213.667 74.5582 214.854C74.6652 216.044 75.2456 217.164 76.1624 217.934C77.0753 218.7 78.2822 219.08 79.4695 218.975C80.6569 218.872 81.7763 218.285 82.5423 217.372C83.311 216.456 83.6919 215.255 83.5877 214.068Z" fill="black" fill-opacity="0.11"/>
</g>
<defs>
<clipPath id="clip0">
<rect x="149.127" width="232" height="232" transform="rotate(40 149.127 0)" fill="white"/>
</clipPath>
</defs>
</svg>
