<svg width="17" height="17" viewBox="0 0 17 17" fill="none" xmlns="http://www.w3.org/2000/svg">
<g clip-path="url(#clip0)">
<path d="M5.7292 13.0124C5.72488 12.9911 5.71857 12.9702 5.71027 12.9499C5.70197 12.93 5.69168 12.9108 5.67973 12.8928C5.66777 12.8746 5.65383 12.8576 5.63855 12.8424C5.62328 12.8271 5.60635 12.8131 5.58809 12.8012C5.57016 12.7892 5.5509 12.7789 5.53064 12.7706C5.51072 12.7623 5.4898 12.7557 5.46855 12.7517C5.42572 12.7431 5.38156 12.7431 5.33906 12.7517C5.31781 12.7557 5.29689 12.7623 5.27664 12.7706C5.25672 12.7789 5.23746 12.7892 5.21953 12.8012C5.20127 12.8131 5.18434 12.8271 5.16906 12.8424C5.15379 12.8576 5.13984 12.8746 5.12789 12.8928C5.11561 12.9108 5.10564 12.93 5.09734 12.9499C5.08904 12.9702 5.0824 12.9911 5.07842 13.0124C5.0741 13.0336 5.07178 13.0555 5.07178 13.0771C5.07178 13.0987 5.0741 13.1206 5.07842 13.1418C5.0824 13.1631 5.08904 13.184 5.09734 13.2039C5.10564 13.2242 5.11561 13.2434 5.12789 13.2614C5.13984 13.2796 5.15379 13.2966 5.16906 13.3118C5.18434 13.3271 5.20127 13.3411 5.21953 13.353C5.23746 13.365 5.25672 13.3753 5.27664 13.3836C5.29689 13.3919 5.31781 13.3985 5.33906 13.4025C5.36031 13.4068 5.38223 13.4092 5.40381 13.4092C5.42539 13.4092 5.4473 13.4068 5.46855 13.4025C5.4898 13.3985 5.51072 13.3919 5.53064 13.3836C5.5509 13.3753 5.57016 13.365 5.58809 13.353C5.60635 13.3411 5.62328 13.3271 5.63855 13.3118C5.65383 13.2966 5.66777 13.2796 5.67973 13.2614C5.69168 13.2434 5.70197 13.2242 5.71027 13.2039C5.71857 13.184 5.72488 13.1631 5.7292 13.1418C5.73352 13.1206 5.73584 13.0987 5.73584 13.0771C5.73584 13.0555 5.73352 13.0336 5.7292 13.0124Z" fill="#3A6B5C"/>
<path d="M15.2732 13.1147C15.2719 13.1113 15.2706 13.1081 15.2692 13.1048C14.9636 12.3897 14.2469 12.1254 13.3987 12.4151L11.0855 13.0548C10.9517 12.6498 10.6181 12.3051 10.1464 12.1301C10.1435 12.129 10.1406 12.128 10.1376 12.127L7.59492 11.264C7.38328 10.9904 6.72035 10.2904 5.47911 10.2904C4.61168 10.2904 3.84432 10.8855 3.40531 11.5341H0.332031C0.14865 11.5341 0 11.6827 0 11.8661V16.0523C0 16.2357 0.14865 16.3843 0.332031 16.3843H2.30619C2.48957 16.3843 2.63822 16.2357 2.63822 16.0523V15.7656H3.56402C3.7474 15.7656 3.89605 15.6169 3.89605 15.4336V15.338C4.43574 15.3851 4.61324 15.4875 5.1089 15.7733C5.49007 15.9931 6.06618 16.3253 7.10364 16.7917C7.10846 16.7939 7.11334 16.796 7.11822 16.7979C7.31734 16.8762 7.70658 16.9993 8.18646 16.9993C8.52049 16.9993 8.8985 16.9396 9.28652 16.7637L14.3995 14.933C14.4086 14.9298 14.4176 14.9261 14.4263 14.9221C14.915 14.6973 15.6432 14.0636 15.2732 13.1147ZM1.97416 15.7202H0.664062V12.1981H1.97416V15.7202ZM3.23199 15.1015H2.63822V12.1981H3.23199V15.1015ZM14.161 14.313L9.05031 16.1429C9.04583 16.1445 9.03975 16.1469 9.03533 16.1487C9.03085 16.1505 9.02637 16.1524 9.02195 16.1544C8.31018 16.4816 7.6336 16.2857 7.36844 16.1826C6.3663 15.7317 5.83143 15.4233 5.44063 15.1979C4.89729 14.8846 4.63549 14.7336 3.89605 14.6726V11.9983C4.21079 11.4825 4.82113 10.9544 5.47915 10.9544C6.60759 10.9544 7.08575 11.6884 7.10454 11.718C7.14508 11.7839 7.2074 11.8337 7.28068 11.8585L9.9195 12.7541C10.3409 12.9123 10.5637 13.2732 10.4613 13.6332C10.4141 13.7994 10.3049 13.9372 10.1539 14.0213C10.0043 14.1047 9.83131 14.1253 9.66643 14.0797L6.69166 13.137C6.51674 13.0816 6.33021 13.1784 6.27483 13.3532C6.21941 13.528 6.31623 13.7146 6.49104 13.7701L9.47099 14.7144C9.47415 14.7154 9.4773 14.7163 9.48049 14.7172C9.59945 14.7511 9.72058 14.7678 9.84097 14.7678C10.0614 14.7678 10.2794 14.7117 10.4772 14.6014C10.7831 14.431 11.0043 14.1516 11.1 13.8148C11.1077 13.7879 11.1144 13.761 11.1203 13.7341L13.6133 13.0435C13.9734 12.9205 14.446 12.8762 14.6565 13.3608C14.8743 13.9298 14.3082 14.2428 14.161 14.313Z" fill="#3A6B5C"/>
<path d="M11.9219 4.36758C11.9176 4.34633 11.9113 4.32541 11.9027 4.30516C11.8944 4.28524 11.8844 4.26598 11.8721 4.24805C11.8602 4.22979 11.8462 4.21286 11.8309 4.19758C11.8157 4.18231 11.7987 4.16836 11.7805 4.15641C11.7625 4.14446 11.7433 4.13417 11.7234 4.12586C11.7031 4.11756 11.6822 4.11092 11.6613 4.10694C11.6184 4.09831 11.5743 4.09831 11.5314 4.10694C11.5102 4.11092 11.4893 4.11756 11.4694 4.12586C11.4491 4.13417 11.4298 4.14446 11.4119 4.15641C11.3937 4.16836 11.3767 4.18231 11.3614 4.19758C11.3462 4.21286 11.3322 4.22979 11.3203 4.24805C11.3083 4.26598 11.298 4.28524 11.2897 4.30516C11.2814 4.32541 11.2748 4.34633 11.2708 4.36758C11.2665 4.38883 11.2642 4.41075 11.2642 4.43233C11.2642 4.45391 11.2665 4.47582 11.2708 4.49707C11.2748 4.51832 11.2814 4.53924 11.2897 4.55916C11.298 4.57942 11.3083 4.59868 11.3203 4.61661C11.3322 4.63487 11.3462 4.6518 11.3614 4.66708C11.3767 4.68235 11.3937 4.69629 11.4119 4.70825C11.4298 4.7202 11.4491 4.73049 11.4694 4.73879C11.4893 4.74709 11.5102 4.7534 11.5314 4.75772C11.5527 4.76204 11.5746 4.76436 11.5962 4.76436C11.6178 4.76436 11.6397 4.76204 11.6613 4.75772C11.6822 4.7534 11.7031 4.74709 11.7234 4.73879C11.7433 4.73049 11.7625 4.7202 11.7805 4.70825C11.7987 4.69629 11.8157 4.68235 11.8309 4.66708C11.8462 4.6518 11.8602 4.63487 11.8721 4.61661C11.8844 4.59868 11.8944 4.57942 11.9027 4.55916C11.9113 4.53924 11.9176 4.51832 11.9219 4.49707C11.9262 4.47582 11.9282 4.45391 11.9282 4.43233C11.9282 4.41075 11.9262 4.38883 11.9219 4.36758Z" fill="#3A6B5C"/>
<path d="M16.668 1.12537H14.6938C14.5104 1.12537 14.3618 1.27402 14.3618 1.4574V1.74408H13.436C13.2526 1.74408 13.104 1.89273 13.104 2.07611V2.17167C12.5643 2.12455 12.3868 2.02222 11.8911 1.73641C11.51 1.5166 10.9339 1.1844 9.89637 0.717934C9.89156 0.715743 9.88671 0.713717 9.88176 0.711791C9.54405 0.578912 8.65896 0.317471 7.71363 0.745891L6.37754 1.22428L5.25132 0.0980981C5.12166 -0.03156 4.91142 -0.03156 4.78176 0.0980981L1.08433 3.7955C0.964732 3.91513 0.941788 4.12255 1.08433 4.26509L7.40245 10.5832C7.50355 10.6843 7.74029 10.7149 7.87204 10.5832L11.2476 7.20765C11.3354 7.21522 11.4265 7.2193 11.5209 7.2193C12.3883 7.2193 13.1557 6.62424 13.5946 5.97565H16.668C16.8514 5.97565 17 5.827 17 5.64362V1.4574C17 1.27402 16.8514 1.12537 16.668 1.12537ZM5.01651 0.802436L5.77327 1.5592C5.54832 1.69832 5.28824 1.77276 5.01651 1.77276C4.74474 1.77276 4.48469 1.69836 4.25974 1.5592L5.01651 0.802436ZM2.54547 4.78708L1.7887 4.03028L2.54547 3.27351C2.68459 3.49846 2.75903 3.75854 2.75903 4.03028C2.75903 4.30201 2.68462 4.56209 2.54547 4.78708ZM7.63726 9.87884L6.88063 9.12221C7.34259 8.83712 7.93187 8.83712 8.39386 9.12221L7.63726 9.87884ZM8.87225 8.64388C8.13853 8.11164 7.136 8.11164 6.40227 8.64388L3.02382 5.2654C3.28311 4.9088 3.42309 4.48044 3.42309 4.03028C3.42309 3.58008 3.28314 3.15176 3.02382 2.79515L3.78142 2.03759C4.13802 2.29688 4.56634 2.43686 5.01654 2.43686C5.46674 2.43686 5.89506 2.29688 6.25166 2.03759L6.96981 2.75574C6.81486 2.77862 6.66375 2.82969 6.52283 2.90821C6.28483 3.04082 6.0981 3.23941 5.98182 3.47967C5.60729 3.54903 5.26055 3.73035 4.98855 4.00232C4.25061 4.74029 4.25061 5.94102 4.98858 6.67899C5.35754 7.04794 5.8422 7.23245 6.3269 7.23245C6.81157 7.23245 7.29627 7.04798 7.66525 6.67899C7.90531 6.43893 8.07349 6.14389 8.15772 5.82235L9.27879 6.20282C9.15259 6.78746 9.28185 7.40252 9.63051 7.88562L8.87225 8.64388ZM6.85357 5.37959C6.85649 5.38065 6.85941 5.38171 6.86237 5.38271L7.5263 5.60806C7.47616 5.83433 7.36271 6.04239 7.19569 6.20943C6.71664 6.68842 5.93716 6.68849 5.45818 6.20943C4.97912 5.73041 4.97912 4.95097 5.45818 4.47191C5.57372 4.3563 5.71009 4.26595 5.85867 4.20469C5.91996 4.71476 6.28722 5.16941 6.85357 5.37959ZM10.1089 7.40717C9.98077 7.19832 9.90826 6.95995 9.8968 6.71667C10.0558 6.83166 10.2502 6.94432 10.4824 7.03373L10.1089 7.40717ZM13.1039 5.51124C12.7892 6.02715 12.1789 6.55517 11.5209 6.55517C11.3977 6.55517 11.2824 6.54641 11.1745 6.5308C11.1741 6.53074 11.1736 6.53067 11.1732 6.5306C10.4561 6.42645 10.0704 6.01891 9.94329 5.85754C9.93651 5.84758 9.90766 5.80983 9.90338 5.80356C9.86469 5.73443 9.80128 5.67884 9.72039 5.65139L7.08048 4.7554C6.6592 4.59729 6.43651 4.23653 6.53857 3.87675C6.53864 3.87651 6.5387 3.87628 6.53877 3.87605C6.53887 3.87578 6.53894 3.87548 6.539 3.87522C6.58645 3.70953 6.69542 3.57211 6.84603 3.4882C6.99565 3.40483 7.1686 3.38414 7.33355 3.42986L10.3083 4.37253C10.4832 4.42802 10.6698 4.33113 10.7252 4.15632C10.7805 3.9815 10.6837 3.7949 10.5089 3.73948L8.14305 2.98976L8.12239 2.96911C8.12219 2.96891 8.122 2.96867 8.12176 2.96847L6.8969 1.74361L7.9497 1.36662C7.95326 1.36533 7.95764 1.3637 7.96116 1.36227C7.96206 1.36191 7.96378 1.36124 7.96465 1.36088C7.96916 1.35905 7.97361 1.35713 7.97803 1.3551C8.68977 1.02798 9.36632 1.22378 9.63151 1.32691C10.6337 1.77784 11.1686 2.08627 11.5594 2.31162C12.1027 2.62495 12.3645 2.77593 13.1039 2.83699V5.51124ZM14.3618 5.31152H13.768V2.40814H14.3618V5.31152ZM16.3359 5.31152H15.0259V1.78943H16.3359V5.31152Z" fill="#3A6B5C"/>
</g>
<defs>
<clipPath id="clip0">
<rect width="17" height="17" fill="white"/>
</clipPath>
</defs>
</svg>
