<svg width="22" height="22" viewBox="0 0 22 22" fill="none" xmlns="http://www.w3.org/2000/svg">
<path d="M9.94815 1.63799C6.19393 1.44124 2.99834 4.31856 2.80159 8.07278C2.60484 11.827 5.48216 15.0226 9.23638 15.2193C10.5767 15.2896 11.8378 14.9614 12.9245 14.3487L17.5732 19.5115L19.3598 17.9028L14.7696 12.8181C15.7002 11.7216 16.3017 10.334 16.3829 8.78455C16.5797 5.03033 13.7024 1.83474 9.94815 1.63799ZM9.86441 3.2358C12.7402 3.38651 14.9359 5.82507 14.7851 8.70082C14.6344 11.5766 12.1959 13.7723 9.32012 13.6215C6.44438 13.4708 4.24868 11.0323 4.39939 8.15652C4.5501 5.28078 6.98867 3.08508 9.86441 3.2358Z" fill="#8C979C"/>
</svg>
