<svg width="18" height="20" viewBox="0 0 18 20" fill="none" xmlns="http://www.w3.org/2000/svg">
<g clip-path="url(#clip0)">
<path d="M17.9236 4.31687C16.8348 4.3728 16.8586 4.36824 16.7355 4.37972L17.3803 2.32731C17.3803 2.32731 15.3677 3.15254 14.8574 3.30016C13.5174 1.95774 11.5256 1.89843 10.1016 2.87393C8.93544 3.67296 8.30953 5.04511 8.5183 6.64893C6.24878 6.2979 4.33659 5.09883 2.82687 3.07748L2.34939 2.43828L1.99259 3.16858C1.54165 4.09139 1.3919 5.14652 1.57083 6.13954C1.64425 6.54693 1.76903 6.93548 1.94189 7.29931L1.53227 7.1224L1.48368 7.88523C1.43442 8.66013 1.6659 9.56469 2.10298 10.3047C2.22605 10.5131 2.38451 10.742 2.58536 10.9677L2.37368 10.9315L2.63197 11.8056C2.97147 12.9541 3.67661 13.8426 4.5917 14.3365C3.6778 14.7688 2.93951 15.0446 1.72599 15.4895L0.615723 15.8963L1.64121 16.5213C2.03221 16.7595 3.41383 17.5553 4.77895 17.7941C7.81342 18.3245 11.2299 17.8925 13.5299 15.5837C15.4672 13.639 16.1029 10.8728 15.9709 7.99414C15.9509 7.55834 16.058 7.14242 16.2724 6.82319C16.702 6.18399 17.9209 4.32114 17.9236 4.31687ZM15.4615 6.14616C15.1054 6.67615 14.927 7.35303 14.959 8.05184C15.0922 10.9555 14.3834 13.2074 12.852 14.7445C11.0631 16.5402 8.17774 17.2451 4.93595 16.6783C4.34887 16.5757 3.7421 16.346 3.23992 16.1165C4.25736 15.7263 5.04305 15.3786 6.3119 14.7092L8.0832 13.7747L6.12756 13.6352C5.19081 13.5684 4.4108 13.0624 3.93133 12.2408C4.18592 12.2244 4.4314 12.1784 4.67582 12.1025L6.541 11.5235L4.66024 11.0101C3.74633 10.7607 3.2254 10.1512 2.94928 9.68376C2.76798 9.3766 2.64953 9.06193 2.57849 8.77184C2.76706 8.82821 2.98692 8.86839 3.34147 8.90754L5.08226 9.09946L3.70302 7.90024C2.70922 7.0363 2.31096 5.73833 2.60292 4.49054C5.70448 8.07612 9.34611 7.80664 9.71268 7.90142C9.63199 7.02791 9.62988 7.02585 9.60875 6.94269C9.13932 5.0931 10.1681 4.15395 10.6321 3.83604C11.6014 3.17211 13.1399 3.07203 14.2055 4.16587C14.4357 4.40194 14.7469 4.49481 15.0382 4.41416C15.2996 4.34175 15.5142 4.26507 15.7243 4.18161L15.287 5.57363L15.8453 5.57408C15.7399 5.73156 15.6135 5.92009 15.4615 6.14616Z" fill="white"/>
</g>
<defs>
<clipPath id="clip0">
<rect x="0.615723" y="0.4375" width="17.3079" height="19.2911" fill="white"/>
</clipPath>
</defs>
</svg>
