<svg width="19" height="20" viewBox="0 0 19 20" fill="none" xmlns="http://www.w3.org/2000/svg">
<g clip-path="url(#clip0)">
<path d="M8.09123 6.75214C7.73282 6.51341 7.27344 6.80197 7.27344 7.26978V12.8963C7.27344 13.3665 7.73354 13.6511 8.09123 13.4148L12.3237 10.6055C12.6756 10.3716 12.6749 9.80414 12.3244 9.56943L8.09123 6.75214ZM8.35518 11.8361V8.33159L10.991 10.0863L8.35518 11.8361Z" fill="white"/>
<path d="M15.2776 3.06671C11.922 2.51129 7.23446 2.51129 3.87746 3.06671C2.53466 3.28856 1.47671 4.46371 1.24594 5.98931C0.816131 8.82107 0.816131 11.3458 1.24594 14.1768C1.47671 15.7032 2.53466 16.8775 3.87746 17.0993C5.55921 17.3775 7.57269 17.5165 9.58545 17.5165C11.5946 17.5165 13.603 17.3783 15.2783 17.1002C16.6197 16.8783 17.6769 15.704 17.9091 14.1776C18.3389 11.3458 18.3389 8.82027 17.9091 5.9885C17.6783 4.46371 16.6204 3.28856 15.2776 3.06671ZM16.8425 13.9766C16.6889 14.9862 15.9966 15.7626 15.1189 15.9073C11.8607 16.4467 7.30297 16.4467 4.03611 15.9065C3.15774 15.761 2.4647 14.9854 2.31182 13.9758C1.89787 11.2477 1.89787 8.91914 2.31182 6.18945C2.46543 5.17989 3.15774 4.40503 4.03684 4.25874C5.6681 3.98947 7.62317 3.85443 9.57679 3.85443C11.5319 3.85443 13.4869 3.98947 15.1182 4.25874C15.9966 4.40423 16.6896 5.17989 16.8425 6.18945C17.2564 8.91914 17.2564 11.2477 16.8425 13.9766Z" fill="white"/>
</g>
<defs>
<clipPath id="clip0">
<rect x="0.923584" y="0.4375" width="17.3079" height="19.2911" fill="white"/>
</clipPath>
</defs>
</svg>
